<svg class="svg-icon" style="width: 1em; height: 1em;vertical-align: middle;fill: #fff;overflow: hidden;" viewBox="0 0 1024 1024" version="1.1" xmlns="http://www.w3.org/2000/svg"><path d="M998.06736 877.29763 753.840166 632.729813c-2.788857-2.788857-5.939626-4.939044-8.941372-7.32341 41.087734-63.377297 65.101705-138.97447 65.101705-220.702869 0-223.619459-180.168649-404.703534-403.149439-404.703534-223.321414 0-404.490644 181.062786-404.490644 404.703534 0 223.960083 181.169231 404.980291 404.490644 404.980291 81.238753 0 156.708191-24.162994 219.915177-65.484906 2.277921 3.086902 4.406819 6.109938 7.238254 8.941372l243.631102 244.567817c16.669272 16.626694 38.426611 24.908108 60.205239 24.908108 21.73605 0 43.535967-8.323992 60.18395-24.86553C1031.235593 964.454719 1031.235593 910.572308 998.06736 877.29763M406.85106 682.013805c-152.599418 0-276.756757-124.199917-276.756757-277.288981 0-152.791019 124.157339-276.990936 276.756757-276.990936 152.429106 0 276.011642 124.199917 276.011642 276.990936C682.862703 557.813888 559.280166 682.013805 406.85106 682.013805"  /></svg>